HIERARCHY
ROOT hips
{
  OFFSET 0 10.6860622 2.3727825e-15
  CHANNELS 6 Xposition Yposition Zposition Yrotation Xrotation Zrotation
  JOINT leftUpperLeg
  {
    OFFSET 0.6642549969 -0.9402397400000004 0
    CHANNELS 3 Yrotation Xrotation Zrotation
    JOINT leftLowerLeg
    {
      OFFSET 0 -3.997221335632195 0
      CHANNELS 3 Yrotation Xrotation Zrotation
      JOINT leftFoot
      {
        OFFSET -0.13777839790000004 -4.6145792000000005 -0.22186036399999998
        CHANNELS 3 Yrotation Xrotation Zrotation
        JOINT leftToes
        {
          OFFSET -0.03777410834999995 -0.9130806927000008 0.85230013
          CHANNELS 3 Yrotation Xrotation Zrotation
          End Site
          {
            OFFSET -0.03777410834999995 -0.9130806927000008 0.85230013
          }
        }
      }
    }
  }
  JOINT rightUpperLeg
  {
    OFFSET -0.6642778626 -0.9402397400000004 0
    CHANNELS 3 Yrotation Xrotation Zrotation
    JOINT rightLowerLeg
    {
      OFFSET 0 -3.997221452859387 0
      CHANNELS 3 Yrotation Xrotation Zrotation
      JOINT rightFoot
      {
        OFFSET 0.1377926176 -4.6145792000000005 -0.22185782299999995
        CHANNELS 3 Yrotation Xrotation Zrotation
        JOINT rightToes
        {
          OFFSET 0.037780746850000047 -0.9130806927000008 0.85230167
          CHANNELS 3 Yrotation Xrotation Zrotation
          End Site
          {
            OFFSET 0.037780746850000047 -0.9130806927000008 0.85230167
          }
        }
      }
    }
  }
  JOINT spine
  {
    OFFSET 0 0.13988381660000015 0
    CHANNELS 3 Yrotation Xrotation Zrotation
    JOINT chest
    {
      OFFSET 0 0.6191039003973773 0
      CHANNELS 3 Yrotation Xrotation Zrotation
      JOINT upperChest
      {
        OFFSET 0 0.9855186130586943 0
        CHANNELS 3 Yrotation Xrotation Zrotation
        JOINT leftShoulder
        {
          OFFSET 0.1807663869 1.5087829790000005 0
          CHANNELS 3 Yrotation Xrotation Zrotation
          JOINT leftUpperArm
          {
            OFFSET 0.5985063006419806 0 0
            CHANNELS 3 Yrotation Xrotation Zrotation
            JOINT leftLowerArm
            {
              OFFSET 2.2993332369501065 0 0
              CHANNELS 3 Yrotation Xrotation Zrotation
              JOINT leftHand
              {
                OFFSET 2.395047042602395 0 0
                CHANNELS 3 Yrotation Xrotation Zrotation
                JOINT leftIndexProximal
                {
                  OFFSET 0.5766295810000004 0.04556643899499946 0.17265095988184
                  CHANNELS 3 Yrotation Xrotation Zrotation
                  JOINT leftIndexIntermediate
                  {
                    OFFSET 0.2957229000000008 -0.019352197700001517 -0.007932640616999987
                    CHANNELS 3 Yrotation Xrotation Zrotation
                    JOINT leftIndexDistal
                    {
                      OFFSET 0.19008243099999922 -0.012484908149998475 -0.002786250786000012
                      CHANNELS 3 Yrotation Xrotation Zrotation
                      End Site
                      {
                        OFFSET 0.19008243099999922 -0.012484908149998475 -0.002786250786000012
                      }
                    }
                  }
                }
                JOINT leftMiddleProximal
                {
                  OFFSET 0.5834975091000001 0.0524350405149987 0.02204081888183999
                  CHANNELS 3 Yrotation Xrotation Zrotation
                  JOINT leftMiddleIntermediate
                  {
                    OFFSET 0.33880573540000003 -0.019871473270000717 -0.00000971183179999946
                    CHANNELS 3 Yrotation Xrotation Zrotation
                    JOINT leftMiddleDistal
                    {
                      OFFSET 0.20676022730000088 -0.012221336379999448 0.0001471936708000235
                      CHANNELS 3 Yrotation Xrotation Zrotation
                      End Site
                      {
                        OFFSET 0.20676022730000088 -0.012221336379999448 0.0001471936708000235
                      }
                    }
                  }
                }
                JOINT leftLittleProximal
                {
                  OFFSET 0.5344154683999995 -0.012880921405001189 -0.24414037221816004
                  CHANNELS 3 Yrotation Xrotation Zrotation
                  JOINT leftLittleIntermediate
                  {
                    OFFSET 0.21758961730000093 -0.011650919939999227 0.011893592810000034
                    CHANNELS 3 Yrotation Xrotation Zrotation
                    JOINT leftLittleDistal
                    {
                      OFFSET 0.1475273964999999 -0.008152365682999818 0.006001092492999946
                      CHANNELS 3 Yrotation Xrotation Zrotation
                      End Site
                      {
                        OFFSET 0.1475273964999999 -0.008152365682999818 0.006001092492999946
                      }
                    }
                  }
                }
                JOINT leftRingProximal
                {
                  OFFSET 0.5799399463000003 0.026911854694997794 -0.12150566991816003
                  CHANNELS 3 Yrotation Xrotation Zrotation
                  JOINT leftRingIntermediate
                  {
                    OFFSET 0.26167887460000006 -0.013480186499999602 0.010996293000000053
                    CHANNELS 3 Yrotation Xrotation Zrotation
                    JOINT leftRingDistal
                    {
                      OFFSET 0.17667108799999987 -0.008990287899999228 0.0055541023999999065
                      CHANNELS 3 Yrotation Xrotation Zrotation
                      End Site
                      {
                        OFFSET 0.17667108799999987 -0.008990287899999228 0.0055541023999999065
                      }
                    }
                  }
                }
                JOINT leftThumbProximal
                {
                  OFFSET 0.11018806699999972 -0.09448718900500053 0.17047963138184
                  CHANNELS 3 Yrotation Xrotation Zrotation
                  JOINT leftThumbIntermediate
                  {
                    OFFSET 0.31062601459999983 -0.08126270900000132 0.15443142000000007
                    CHANNELS 3 Yrotation Xrotation Zrotation
                    JOINT leftThumbDistal
                    {
                      OFFSET 0.21627175790000086 -0.08833193599999878 0.018771167799999988
                      CHANNELS 3 Yrotation Xrotation Zrotation
                      End Site
                      {
                        OFFSET 0.21627175790000086 -0.08833193599999878 0.018771167799999988
                      }
                    }
                  }
                }
              }
            }
          }
        }
        JOINT neck
        {
          OFFSET 0 1.5463305265074576 0
          CHANNELS 3 Yrotation Xrotation Zrotation
          JOINT head
          {
            OFFSET 0 0.8456443600000344 0
            CHANNELS 3 Yrotation Xrotation Zrotation
            JOINT leftEye
            {
              OFFSET 0.30408573140000006 0.5104519199999995 0.1276382305
              CHANNELS 3 Yrotation Xrotation Zrotation
              End Site
              {
                OFFSET 0.30408573140000006 0.5104519199999995 0.1276382305
              }
            }
            JOINT rightEye
            {
              OFFSET -0.30409491089999996 0.5104519199999995 0.1276379445
              CHANNELS 3 Yrotation Xrotation Zrotation
              End Site
              {
                OFFSET -0.30409491089999996 0.5104519199999995 0.1276379445
              }
            }
            JOINT jaw
            {
              OFFSET -3.155239131000001e-7 -0.11984121820000082 0.60178107
              CHANNELS 3 Yrotation Xrotation Zrotation
              End Site
              {
                OFFSET -3.155239131000001e-7 -0.11984121820000082 0.60178107
              }
            }
          }
        }
        JOINT rightShoulder
        {
          OFFSET -0.1807303465 1.5087829790000005 0
          CHANNELS 3 Yrotation Xrotation Zrotation
          JOINT rightUpperArm
          {
            OFFSET -0.5985063796536958 0 0
            CHANNELS 3 Yrotation Xrotation Zrotation
            JOINT rightLowerArm
            {
              OFFSET -2.2993322059002854 0 0
              CHANNELS 3 Yrotation Xrotation Zrotation
              JOINT rightHand
              {
                OFFSET -2.395045314457259 0 0
                CHANNELS 3 Yrotation Xrotation Zrotation
                JOINT rightIndexProximal
                {
                  OFFSET -0.5764487688300002 0.0441371204405987 0.17361932004999997
                  CHANNELS 3 Yrotation Xrotation Zrotation
                  JOINT rightIndexIntermediate
                  {
                    OFFSET -0.29573011380000047 -0.01934826376999843 -0.007698921482999974
                    CHANNELS 3 Yrotation Xrotation Zrotation
                    JOINT rightIndexDistal
                    {
                      OFFSET -0.19008373999999884 -0.012503266380000655 -0.0026365778999999897
                      CHANNELS 3 Yrotation Xrotation Zrotation
                      End Site
                      {
                        OFFSET -0.19008373999999884 -0.012503266380000655 -0.0026365778999999897
                      }
                    }
                  }
                }
                JOINT rightMiddleProximal
                {
                  OFFSET -0.5834852037300005 0.05211639405060153 0.02307162440000001
                  CHANNELS 3 Yrotation Xrotation Zrotation
                  JOINT rightMiddleIntermediate
                  {
                    OFFSET -0.33880114510000003 -0.019952774050000954 0.0002455003561999819
                    CHANNELS 3 Yrotation Xrotation Zrotation
                    JOINT rightMiddleDistal
                    {
                      OFFSET -0.20675694929999955 -0.012273788999999091 0.00030209124000002766
                      CHANNELS 3 Yrotation Xrotation Zrotation
                      End Site
                      {
                        OFFSET -0.20675694929999955 -0.012273788999999091 0.00030209124000002766
                      }
                    }
                  }
                }
                JOINT rightLittleProximal
                {
                  OFFSET -0.5346811737299992 -0.011214256288399227 -0.24363941305000003
                  CHANNELS 3 Yrotation Xrotation Zrotation
                  JOINT rightLittleIntermediate
                  {
                    OFFSET -0.21757715980000092 -0.011771559690000988 0.01201554387
                    CHANNELS 3 Yrotation Xrotation Zrotation
                    JOINT rightLittleDistal
                    {
                      OFFSET -0.1475201849000004 -0.00822055339600003 0.006082065407000015
                      CHANNELS 3 Yrotation Xrotation Zrotation
                      End Site
                      {
                        OFFSET -0.1475201849000004 -0.00822055339600003 0.006082065407000015
                      }
                    }
                  }
                }
                JOINT rightRingProximal
                {
                  OFFSET -0.5800810755299999 0.027657985680600072 -0.12066365025000003
                  CHANNELS 3 Yrotation Xrotation Zrotation
                  JOINT rightRingIntermediate
                  {
                    OFFSET -0.26166445029999974 -0.013623118409999302 0.011164098990000045
                    CHANNELS 3 Yrotation Xrotation Zrotation
                    JOINT rightRingDistal
                    {
                      OFFSET -0.17666387530000027 -0.009072900100000503 0.005668185599999959
                      CHANNELS 3 Yrotation Xrotation Zrotation
                      End Site
                      {
                        OFFSET -0.17666387530000027 -0.009072900100000503 0.005668185599999959
                      }
                    }
                  }
                }
                JOINT rightThumbProximal
                {
                  OFFSET -0.10997596379000074 -0.09577489355940072 0.16989765924999997
                  CHANNELS 3 Yrotation Xrotation Zrotation
                  JOINT rightThumbIntermediate
                  {
                    OFFSET -0.31036620999999986 -0.08229339117999834 0.15440884469999996
                    CHANNELS 3 Yrotation Xrotation Zrotation
                    JOINT rightThumbDistal
                    {
                      OFFSET -0.21631306399999906 -0.08825326400000111 0.018656797720000014
                      CHANNELS 3 Yrotation Xrotation Zrotation
                      End Site
                      {
                        OFFSET -0.21631306399999906 -0.08825326400000111 0.018656797720000014
                      }
                    }
                  }
                }
              }
            }
          }
        }
      }
    }
  }
}
MOTION
Frames: 10
Frame Time: 0.03333333333333333
0 11.682712981546562 0 0 0 0 0 0 -5.826343164929014 -0.3712483961610101 -3.6333298826370974 5.838118207697276 0 0 0 0 0 0 0 0 5.826343164929014 0.3712483961610101 -3.6333298826370974 -5.838118207697276 0 0 0 0 0 0 0 -4.610651315171937 0 0 3.0831277533083026 0 0 0 0 0 1.5275236235667615 0 0 0 0 0 0 0 0 0 0 0 0 0 0 0 0 0 0 0 0 0 0 0 0 0 0 0 0 0 0 0 0 0 0 0 0 0 0 0 0 0 0 0 0 0 0 0 0 0 0 0 0 0 0 0 0 1.5275236235667615 0 0 0 0 0 0 0 0 0 0 0 0 0 0 1.5275236235667615 0 0 0 0 0 0 0 0 0 0 0 0 0 0 0 0 0 0 0 0 0 0 0 0 0 0 0 0 0 0 0 0 0 0 0 0 0 0 0 0 0 0 0 0 0 0 0 0 0 0 0 0 0 0 0
0.1346301259557403 -7.104863834085915 -0.12334852522366067 0 28.99701407856551 0 -19.587359645410487 -70.35631736479658 35.21534076646834 177.1110254397622 54.94728910451606 -161.4250717376279 -5.46633163407372 49.79661944297019 -23.9820914294811 0 0 0 19.87662360854406 -70.15127272062375 -35.5548002291236 -177.19389435455585 55.00974327239236 161.24669842576674 6.165349802893974 50.227181767682026 24.5596839908357 0 0 0 -0.838383076547468 4.729331404407085 -1.4129617926504485 -0.5534165655939318 40.155440912566256 -0.7413170497267246 0 0 0 -28.012537541716974 -1.563055023941995 -8.137592100428677 -46.60630916340782 -46.64626331823079 -16.517230764736446 -6.455474767382031 -19.950119136791265 4.253981618753783 3.057666805714855 1.7554049481479688 25.22130954494207 0 0 0 0 0 0 0 0 0 0 0 0 0 0 0 0 0 0 0 0 0 0 0 0 0 0 0 0 0 0 0 0 0 0 0 0 0 0 0 0 0 0 0 0 0 0 1.5275236235667615 0 0 0 0 0 0 0 0 0 0 0 0 0 28.331354850338162 -1.8181860258843043 8.09011897124854 59.00167261559612 -28.960354903961953 12.66385739059244 3.8160800702483604 -19.92138197227667 -5.320187417582654 -2.7073767257135466 2.040590085427032 -26.37379696766186 0 0 0 0 0 0 0 0 0 0 0 0 0 0 0 0 0 0 0 0 0 0 0 0 0 0 0 0 0 0 0 0 0 0 0 0 0 0 0 0 0 0 0 0 0
0.1346301259557403 -7.122913616919655 -0.11322637910362329 0 28.19874932276545 0 -18.849971710247566 -69.68806071773076 35.024802011286695 177.1110254397622 54.94728910451606 -161.4250717376279 -5.165994838976501 49.695320480935514 -23.19679744774028 0 0 0 19.12604560863974 -69.4894450879288 -35.350084105243575 -177.19389435455585 55.00974327239236 161.24669842576674 5.838263983997135 50.11816657449354 23.751558572019842 0 0 0 -0.8393871363125549 5.635321165445689 -1.4258869556778464 -0.5534165655939318 40.155440912566256 -0.7413175384036595 0 0 0 -27.32188031627113 -1.5322081351172407 -8.28204077977924 -47.75955298457093 -45.96851461928572 -16.533637923504116 -6.666626991327103 -19.756438001389608 4.2627470637311395 3.5112569309053496 1.8077619945817633 25.07487722876364 0 0 0 0 0 0 0 0 0 0 0 0 0 0 0 0 0 0 0 0 0 0 0 0 0 0 0 0 0 0 0 0 0 0 0 0 0 0 0 0 0 0 0 0 0 0 1.5275236235667615 0 0 0 0 0 0 0 0 0 0 0 0 0 27.631560243204575 -1.7810522483164406 8.237378421150687 59.83784640320582 -28.837651478219588 12.65743222476056 3.966770177047873 -19.727842887373257 -5.324162552858674 -3.1707980703009486 2.08012551513857 -26.196771983048208 0 0 0 0 0 0 0 0 0 0 0 0 0 0 0 0 0 0 0 0 0 0 0 0 0 0 0 0 0 0 0 0 0 0 0 0 0 0 0 0 0 0 0 0 0
0.1346301259557403 -7.140963399753395 -0.10310423298358591 0 27.40048201236418 0 -18.141285457070953 -69.01902479553495 34.86410915843 177.1110254397622 54.94728910451606 -161.4250717376279 -4.868460387313231 49.59137672614529 -22.41398698837515 0 0 0 18.40446710711615 -68.82676277210739 -35.175506327753894 -177.19389435455585 55.00974327239236 161.24669842576674 5.514355369425461 50.006210766221315 22.946274039678183 0 0 0 -0.840603824787749 6.541310634830259 -1.438847741711988 -0.5534165306871428 40.155440912566256 -0.7413180270805942 0 0 0 -26.63131034913202 -1.4996230246178623 -8.426105840002897 -48.8992125029283 -45.29112882969941 -16.569233909065538 -6.877493548989389 -19.562728969336003 4.270744266957038 3.9647252681815046 1.8612757823676331 24.928860102695968 0 0 0 0 0 0 0 0 0 0 0 0 0 0 0 0 0 0 0 0 0 0 0 0 0 0 0 0 0 0 0 0 0 0 0 0 0 0 0 0 0 0 0 0 0 0 1.5275236235667615 0 0 0 0 0 0 0 0 0 0 0 0 0 26.93187502985697 -1.7421237561320149 8.384168820276217 60.67302223947744 -28.714876455882695 12.653057227807288 4.11726459216048 -19.534293358894537 -5.327592397363362 -3.6341070440393843 2.121090209759313 -26.020070185611356 0 0 0 0 0 0 0 0 0 0 0 0 0 0 0 0 0 0 0 0 0 0 0 0 0 0 0 0 0 0 0 0 0 0 0 0 0 0 0 0 0 0 0 0 0
0.1346301259557403 -7.177062160244062 -0.08285994074351115 0 25.798906939290255 0 -16.794595768613647 -67.67409174799576 34.621196274576235 177.1110254397622 54.94728910451606 -161.4250717376279 -4.280976890287326 49.3752645687421 -20.853244806205783 0 0 0 17.032944029453777 -67.49439210696914 -34.90571107488146 -177.19389435455585 55.00974327239236 161.24669842576674 4.875161852895394 49.77317190488328 21.341533513665578 0 0 0 -0.8436758851408314 8.360702880036426 -1.4650190425963936 -0.5534165655939318 40.155440912566256 -0.7413170497267246 0 0 0 -25.24710840804158 -1.429077958125716 -8.713697467290407 -51.14344044109637 -43.93697887277554 -16.695462605501866 -7.298555950531153 -19.175083195019777 4.284450945196591 4.872329182434051 1.9718879185730789 24.63777143512977 0 0 0 0 0 0 0 0 0 0 0 0 0 0 0 0 0 0 0 0 0 0 0 0 0 0 0 0 0 0 0 0 0 0 0 0 0 0 0 0 0 0 0 0 0 0 1.5275236235667615 0 0 0 0 0 0 0 0 0 0 0 0 0 25.52936047725813 -1.6586909328944894 8.676987439902994 62.3419143824163 -28.46905404801519 12.650420688961677 4.417770728217837 -19.14706031781996 -5.332826871375539 -4.561524552234923 2.207406406439359 -25.667224338029868 0 0 0 0 0 0 0 0 0 0 0 0 0 0 0 0 0 0 0 0 0 0 0 0 0 0 0 0 0 0 0 0 0 0 0 0 0 0 0 0 0 0 0 0 0
0.1346301259557403 -7.195111943077803 -0.07273779462347377 0 24.995898965202045 0 -16.15266261737297 -66.99869987258802 34.53489860032415 177.11102603915063 54.94728315829081 -161.42507129854783 -3.991211690453756 49.263173403872 -20.075587257173726 0 0 0 16.37909554899653 -66.82521277708068 -34.806447904826506 -177.1938960275267 55.00974327239236 161.24669560610948 4.560081245578979 49.652168668923544 20.542368449203725 0 0 0 -0.8455376680905667 9.273667823189024 -1.478237918534274 -0.5534165655939318 40.155440912566256 -0.7413175384036595 0 0 0 -24.55367877268695 -1.3911231618076751 -8.857133620081045 -52.2482289883658 -43.26146944608783 -16.78480192926413 -7.508754101854238 -18.981162430492958 4.290164588267689 5.326396266337499 2.0289761364682897 24.492745464531513 0 0 0 0 0 0 0 0 0 0 0 0 0 0 0 0 0 0 0 0 0 0 0 0 0 0 0 0 0 0 0 0 0 0 0 0 0 0 0 0 0 0 0 0 0 0 1.5275236235667615 0 0 0 0 0 0 0 0 0 0 0 0 0 24.826753409978547 -1.6141949125121922 8.822922792286484 63.17522119316308 -28.34606049439528 12.652167455737112 4.5677853506679 -18.953388959646823 -5.3346355220151365 -5.0255556678094395 2.2527515855062554 -25.49113956210307 0 0 0 0 0 0 0 0 0 0 0 0 0 0 0 0 0 0 0 0 0 0 0 0 0 0 0 0 0 0 0 0 0 0 0 0 0 0 0 0 0 0 0 0 0
0.1346301259557403 -7.213161725911545 -0.0626156485034364 0 24.192892786545244 0 -15.530569486360895 -66.32298372219637 34.46977267735582 177.11102663853885 54.947277212066446 -161.4250703744488 -3.704463071795312 49.14853249418987 -19.300585599311514 0 0 0 15.74544296520391 -66.15564362589608 -34.72871284106834 -177.1938977004976 55.00974327239236 161.2466927864523 4.248420952006775 49.52834007634565 19.746245083408642 0 0 0 -0.8476238243640519 10.186633436996003 -1.4915207565278732 -0.5534165306871428 40.155440912566256 -0.7413180270805942 0 0 0 -23.860355547669226 -1.3514359732118033 -9.000097567336725 -53.34240692216336 -42.587324661320906 -16.890842451950494 -7.718689033605482 -18.78722366579142 4.29512033769471 5.780334553031683 2.0872109717948866 24.348170971270722 0 0 0 0 0 0 0 0 0 0 0 0 0 0 0 0 0 0 0 0 0 0 0 0 0 0 0 0 0 0 0 0 0 0 0 0 0 0 0 0 0 0 0 0 0 0 1.5275236235667615 0 0 0 0 0 0 0 0 0 0 0 0 0 24.124277408636253 -1.5679136355092267 8.968298332684105 64.00757042013728 -28.22310068721184 12.655941953559333 4.71762044205973 -18.759711331187653 -5.335906591998634 -5.4894597457432885 2.2995199999453537 -25.3154246937638 0 0 0 0 0 0 0 0 0 0 0 0 0 0 0 0 0 0 0 0 0 0 0 0 0 0 0 0 0 0 0 0 0 0 0 0 0 0 0 0 0 0 0 0 0
0.1346301259557403 -7.249261023186753 -0.042371356263361644 0 22.583049177841833 0 -14.33585965130147 -64.96703042029806 34.3963979068754 177.11102376951152 54.94728910451606 -161.42507314674654 -3.1394492214137877 48.91138986533636 -17.756654031881414 0 0 0 14.528671960820413 -64.81190629744124 -34.631112903448155 -177.19389435455585 55.00974327239236 161.24669842576674 3.6347361616192777 49.27200256042803 18.161138556883955 0 0 0 -0.8524756791874568 12.018203514299387 -1.5184010713695768 -0.5534165655939318 40.155440912566256 -0.7413170497267246 0 0 0 -22.471514124015446 -1.2667277285642238 -9.285047473234373 -55.499210819230285 -41.24557521272685 -17.150547571453984 -8.13791326022554 -18.399182744524897 4.302768460971314 6.688597416245972 2.2072098926898507 24.060157137825062 0 0 0 0 0 0 0 0 0 0 0 0 0 0 0 0 0 0 0 0 0 0 0 0 0 0 0 0 0 0 0 0 0 0 0 0 0 0 0 0 0 0 0 0 0 0 1.5275236235667615 0 0 0 0 0 0 0 0 0 0 0 0 0 22.717089788318383 -1.4698335048898177 9.25782476737005 65.66951177052378 -27.977440068865803 12.66952573595973 5.016834804643568 -18.372272743000146 -5.336843115069113 -6.4177420875956095 2.397407335442585 -24.964817712385987 0 0 0 0 0 0 0 0 0 0 0 0 0 0 0 0 0 0 0 0 0 0 0 0 0 0 0 0 0 0 0 0 0 0 0 0 0 0 0 0 0 0 0 0 0
0.1346301259557403 -7.267310537628222 -0.03224921014332427 0 21.77652663261278 0 -13.760755056389996 -64.28726250507822 34.38549957800723 177.11102376951152 54.94728910451606 -161.42507314674654 -2.8613412726922873 48.7889762563885 -16.9879734021234 0 0 0 13.943052625033115 -64.1381944214214 -34.608593309420485 -177.19389435455585 55.00974327239236 161.24669842576674 3.332887163262206 49.139573971635954 17.372414706066635 0 0 0 -0.8552503332069389 12.936351941675577 -1.532007589767577 -0.5534165655939318 40.155440912566256 -0.7413170497267246 0 0 0 -21.77621019869334 -1.2217205764706716 -9.426945247415572 -56.81276520183619 -40.695708267723404 -16.840062814861657 -8.347202291141498 -18.20509449497808 4.305464981503502 7.142854169175569 2.268961784089945 23.916762003682646 0 0 0 0 0 0 0 0 0 0 0 0 0 0 0 0 0 0 0 0 0 0 0 0 0 0 0 0 0 0 0 0 0 0 0 0 0 0 0 0 0 0 0 0 0 0 1.5275236235667615 0 0 0 0 0 0 0 0 0 0 0 0 0 22.012603793631918 -1.4180535116481578 9.40188452715719 66.49871144050766 -27.854807067188556 12.67932795428654 5.1662151653549495 -18.17851474208073 -5.33651167779199 -6.882041355433435 2.448516164636866 -24.78997243843548 0 0 0 0 0 0 0 0 0 0 0 0 0 0 0 0 0 0 0 0 0 0 0 0 0 0 0 0 0 0 0 0 0 0 0 0 0 0 0 0 0 0 0 0 0
0.1346301259557403 -7.2853600520696915 -0.022127064023286888 0 20.970003261719246 0 -13.199731393041302 -63.607484448175256 34.39020866290589 177.11102376951152 54.94728910451606 -161.42507314674654 -2.586427864907948 48.66412002085015 -16.22208639439001 0 0 0 13.371857743351827 -63.46442378316891 -34.60201785903132 -177.19389435455585 55.00974327239236 161.24669842576674 3.034657159515531 49.00444751832025 16.586886309431524 0 0 0 -0.8582652315537862 13.854500227829611 -1.5457097831136903 -0.5534165655939318 40.155440912566256 -0.7413170497267246 0 0 0 -21.081029670921794 -1.1749952767428797 -9.568283145136592 -58.11166104311762 -40.140643589314664 -16.548686207670986 -8.55625177749976 -18.010995998477966 4.3074131650104395 7.596974442366358 2.3318476452721986 23.77385595165748 0 0 0 0 0 0 0 0 0 0 0 0 0 0 0 0 0 0 0 0 0 0 0 0 0 0 0 0 0 0 0 0 0 0 0 0 0 0 0 0 0 0 0 0 0 0 1.5275236235667615 0 0 0 0 0 0 0 0 0 0 0 0 0 21.308266134264855 -1.3645069701459234 9.54529375055751 67.32700132950481 -27.732310689722308 12.691122057272082 5.315431275695125 -17.984758024693896 -5.335649441639444 -7.3462006937920785 2.5010387214863115 -24.615539013728725 0 0 0 0 0 0 0 0 0 0 0 0 0 0 0 0 0 0 0 0 0 0 0 0 0 0 0 0 0 0 0 0 0 0 0 0 0 0 0 0 0 0 0 0 0
